<svg height="512pt" viewBox="0 -78 512 512" width="512pt" xmlns="http://www.w3.org/2000/svg"><path d="m395.207031 107.015625-11.839843-5.625v-79.492187c0-12.074219-9.824219-21.898438-21.898438-21.898438-11.351562 0-20.707031 8.679688-21.792969 19.75l-28.464843 16.566406c-40.996094 23.855469-87.648438 38.40625-134.9375 42.085938h-7.429688c-1.703125-3.457032-5.253906-5.84375-9.359375-5.84375h-60.386719c-4.140625 0-7.5 3.355468-7.5 7.5 0 4.140625 3.359375 7.5 7.5 7.5h55.828125v98.484375c-21.039062 0-66.691406 0-98.769531 0v-98.484375h7.941406c4.144532 0 7.5-3.359375 7.5-7.5 0-4.144532-3.355468-7.5-7.5-7.5h-12.503906c-3.460938 0-6.527344 1.703125-8.429688 4.304687l-29.476562 7.507813c-8.058594 2.054687-13.6875 9.292968-13.6875 17.613281v69.632813c0 8.320312 5.628906 15.5625 13.6875 17.613281l29.476562 7.507812c1.898438 2.601563 4.964844 4.304688 8.429688 4.304688h3.433594l17.753906 66.261719c1.070312 4 5.183594 6.371093 9.183594 5.304687 4.003906-1.074219 6.375-5.1875 5.304687-9.1875l-16.714843-62.378906h60.257812c3.949219 14.738281-4.585938-17.105469 22.753906 84.921875 3.292969 12.292968 9.769532 23.566406 18.734375 32.601562l2.414063 2.433594c.09375.09375.34375.347656.214844.820312-.125.46875-.46875.5625-.601563.597657l-69.613281 18.652343c-.539063.140626-1.03125-.238281-1.066406-.757812l-1.40625-19.082031c-.128907-1.757813-.425782-3.515625-.882813-5.21875l-5.03125-18.78125c-1.070313-4.003907-5.183594-6.375-9.183594-5.304688-4.003906 1.070313-6.375 5.183594-5.304687 9.183594l5.03125 18.785156c.214844.792969.351562 1.613281.414062 2.433594l1.402344 19.085937c.730469 9.949219 10.335938 16.710938 19.90625 14.148438l69.617188-18.65625c11.75-3.148438 15.730468-17.820312 7.148437-26.46875l-2.410156-2.433594c-7.128907-7.183594-12.277344-16.148437-14.898438-25.921875l-2.707031-10.109375 9.726562-2.605468c11.40625-3.058594 17.074219-15.800782 11.8125-26.300782l-13.074218-26.089844c-3.417969-6.820312-11.246094-10.339843-18.621094-8.363281l-6.363281 1.707031-2.484375-9.277343h13.144531c4.105469 0 7.65625-2.386719 9.359375-5.84375h7.425781c47.289063 3.679687 93.945313 18.230469 134.941407 42.085937l28.464843 16.566406c1.082031 11.070313 10.441407 19.75 21.792969 19.75 12.074219 0 21.898438-9.824218 21.898438-21.898437v-6.773437c0-4.144532-3.355469-7.5-7.5-7.5-4.144532 0-7.5 3.355468-7.5 7.5v6.773437c0 3.804687-3.09375 6.898437-6.898438 6.898437s-6.898438-3.09375-6.898438-6.898437v-229.804687c0-3.804688 3.09375-6.898438 6.898438-6.898438s6.898438 3.09375 6.898438 6.898438v188.027343c0 4.144531 3.355468 7.5 7.5 7.5 4.144531 0 7.5-3.355469 7.5-7.5v-37.714843l11.839843-5.625c6.535157-3.109376 10.761719-9.792969 10.761719-17.035157v-25.5c0-7.242187-4.222656-13.925781-10.761719-17.035156zm-236.132812 116.085937c.523437-.140624 1.082031.109376 1.328125.597657l13.070312 26.085937c1.023438 2.042969-.082031 4.5-2.285156 5.09375l-9.726562 2.605469-8.753907-32.675781zm-144.074219-51.484374v-11.933594h9.480469c4.140625 0 7.5-3.355469 7.5-7.5 0-4.140625-3.359375-7.5-7.5-7.5h-9.480469v-13.964844h9.480469c4.140625 0 7.5-3.359375 7.5-7.5s-3.359375-7.5-7.5-7.5h-9.480469v-13.734375c0-1.453125.980469-2.71875 2.390625-3.078125l23.765625-6.050781v87.890625l-23.765625-6.054688c-1.410156-.355468-2.390625-1.621094-2.390625-3.074218zm162.136719 8.605468c-.496094-.039062-.445313-.023437-7.210938-.023437v-86.796875c6.839844 0 6.773438.011718 7.210938-.023438 49.628906-3.816406 98.597656-19.0625 141.617187-44.097656l20.816406-12.113281v199.265625l-20.816406-12.113282c-43.019531-25.035156-91.988281-40.285156-141.617187-44.097656zm213.832031-30.671875c0 1.480469-.863281 2.851563-2.199219 3.484375l-5.402343 2.566406v-37.605468l5.402343 2.566406c1.335938.636719 2.199219 2.003906 2.199219 3.488281zm0 0"/><path d="m491.425781 116.222656h-41.835937c-11.347656 0-20.574219 9.230469-20.574219 20.578125 0 11.347657 9.226563 20.578125 20.574219 20.578125h41.835937c11.34375 0 20.574219-9.230468 20.574219-20.578125 0-11.347656-9.230469-20.578125-20.574219-20.578125zm0 26.15625h-41.835937c-3.074219 0-5.574219-2.503906-5.574219-5.578125 0-3.078125 2.5-5.578125 5.574219-5.578125h41.835937c3.074219 0 5.574219 2.5 5.574219 5.578125 0 3.074219-2.5 5.578125-5.574219 5.578125zm0 0"/><path d="m445.855469 97.210938 29.582031-29.578126c8.023438-8.023437 8.023438-21.078124 0-29.101562-8.042969-8.039062-21.058594-8.042969-29.101562 0l-29.578126 29.582031c-8.023437 8.019531-8.023437 21.074219 0 29.097657 8.019532 8.023437 21.078126 8.023437 29.097657 0zm-18.492188-18.492188 29.582031-29.582031c2.175782-2.175781 5.707032-2.175781 7.886719 0 2.175781 2.175781 2.175781 5.714843 0 7.886719l-29.582031 29.582031c-2.171875 2.171875-5.710938 2.175781-7.886719 0s-2.175781-5.710938 0-7.886719zm0 0"/><path d="m445.855469 176.390625c-8.039063-8.042969-21.054688-8.042969-29.097657 0-8.023437 8.019531-8.023437 21.074219 0 29.097656l29.578126 29.582031c8.023437 8.023438 21.078124 8.023438 29.101562 0 8.023438-8.023437 8.023438-21.078124 0-29.101562zm18.976562 48.074219c-2.175781 2.171875-5.710937 2.171875-7.886719 0l-29.582031-29.582032c-2.175781-2.175781-2.175781-5.710937 0-7.886718 2.179688-2.179688 5.707031-2.179688 7.886719 0l29.582031 29.578125c2.175781 2.175781 2.175781 5.714843 0 7.890625zm0 0"/><path d="m105.539062 174.972656c15.8125 0 28.675782-12.863281 28.675782-28.675781s-12.863282-28.675781-28.675782-28.675781c-15.808593 0-28.671874 12.863281-28.671874 28.675781s12.863281 28.675781 28.671874 28.675781zm0-42.347656c7.539063 0 13.675782 6.132812 13.675782 13.671875 0 7.542969-6.136719 13.675781-13.675782 13.675781-7.539062 0-13.671874-6.132812-13.671874-13.675781 0-7.539063 6.132812-13.671875 13.671874-13.671875zm0 0"/></svg>