<svg width="73" height="68" viewBox="0 0 73 68" fill="none" xmlns="http://www.w3.org/2000/svg">
<path d="M0.0533781 27.7102V23.7266L36.183 0L48.8789 8.47289V3.35718L60.2962 3.38372V16.0931L71.7477 23.7401V27.7102H64.5058L36.1498 8.59279L7.14054 27.7102H0.0533781Z" fill="#1A2F45"/>
<path d="M0 30.1334L0.999161 37.2276H3.23728L3.72679 33.9641L4.16642 37.2276H6.33484L7.23393 30.0135H5.5953L5.15567 33.7106L4.71604 30.0135H2.71772L2.25827 33.6204L1.81863 30.0135H0V30.1334Z" fill="#1A2F45"/>
<path d="M11.4238 30.0544H9.13226L7.58028 37.2532H9.35895L9.5687 35.9493H10.8876L11.1274 37.2532H12.9758L11.4238 30.0544ZM9.82864 34.6304L10.2334 32.5723L10.6881 34.6304H9.82864Z" fill="#1A2F45"/>
<path d="M17.9448 36.7992C17.9448 36.6192 17.9298 35.1507 17.9397 34.7059C17.9697 33.9517 17.2504 33.5619 17.2504 33.5619C17.2504 33.5619 17.83 33.0424 17.9397 32.4579C18.0494 31.8734 17.9998 31.5387 17.9448 31.3181C17.6302 30.0052 16.0398 30.0052 16.0398 30.0052H13.3288V37.2091H15.1075V34.2916L15.7521 34.2967C15.7521 34.2967 16.1169 34.3568 16.1067 34.7513C16.0964 35.1459 16.1067 36.8098 16.1067 36.8098C16.1067 36.8098 16.1613 37.2094 16.3314 37.2094C16.5015 37.2094 18.19 37.2094 18.19 37.2094C18.19 37.2094 17.9448 36.9789 17.9448 36.7992ZM16.1265 32.5327C16.0517 33.0871 15.1273 32.9925 15.1273 32.9925V31.3938C15.1273 31.3938 16.0865 31.2439 16.1265 31.7337C16.1364 31.9431 16.1402 32.3681 16.1265 32.5327Z" fill="#1A2F45"/>
<path d="M18.631 30.0813V37.2487H22.9406V35.8764H20.5027V34.1579L22.4211 34.1448V32.839H20.4761V31.3845L22.9406 31.3842V30.0813H18.631Z" fill="#1A2F45"/>
<path d="M23.447 30.0282V37.2487H25.2589V34.1697H26.338V37.2487H28.2299V30.0282H26.3582V32.8191L25.2538 32.8124L25.2391 30.0282H23.447Z" fill="#1A2F45"/>
<path d="M33.592 31.6134C33.5053 29.6819 29.3488 29.2292 28.8958 31.6134C28.8958 31.983 28.9025 35.3971 28.8958 35.6101C29.1023 37.7948 33.5252 37.5416 33.592 35.6101C33.599 35.4051 33.5942 32.2599 33.592 31.6134ZM31.7235 35.5401C31.6736 36.1344 30.7544 36.1197 30.6843 35.5401C30.6872 35.3102 30.6843 31.7333 30.6843 31.6333C30.7444 31.1588 31.6784 31.1137 31.7235 31.6333C31.7199 32.0732 31.7251 35.2453 31.7235 35.5401Z" fill="#1A2F45"/>
<path d="M34.2315 30.0148C34.2315 30.0148 34.1957 35.6548 34.2315 35.8898C34.5314 37.7484 38.608 37.8082 38.8078 35.8898C38.8027 35.7201 38.8078 30.0148 38.8078 30.0148H37.0493C37.0493 30.0148 37.0295 34.9908 37.0394 35.595C37.0193 36.0996 36.1253 36.0695 36.0553 35.6002C36.0546 34.9908 36.0502 30.0148 36.0502 30.0148H34.2315Z" fill="#1A2F45"/>
<path d="M39.3218 34.9109C39.3218 34.9109 39.3016 35.8301 39.3467 35.9199C39.7931 37.8748 43.2836 37.6484 43.933 36.1367C44.018 35.8368 44.1162 35.4157 44.003 34.97C43.5103 33.2256 41.2651 32.7178 41.1954 31.9885C41.1871 31.7884 41.175 31.7238 41.1954 31.6589C41.3204 31.3043 42.0747 31.2842 42.1895 31.6589C42.2345 31.8437 42.1895 32.3035 42.1895 32.3035H43.933C43.933 32.3035 43.9429 31.8859 43.933 31.585C43.7731 29.9752 42.0312 29.9183 42.0312 29.9183C42.0312 29.9183 41.4653 29.9116 41.2053 29.9183C39.6665 30.0052 39.4369 31.1828 39.3467 31.4504C39.3167 31.624 39.3269 32.0525 39.3467 32.1564C39.6466 33.6722 41.9046 34.4917 42.1246 35.1938C42.1847 35.371 42.1546 35.5906 42.1246 35.6706C41.9247 36.0651 41.1852 35.9503 41.0455 35.6706C40.9956 35.5606 41.0455 34.9163 41.0455 34.9163L39.3218 34.9109Z" fill="#1A2F45"/>
<path d="M44.5293 29.9371V37.1046H48.839V35.7323H46.4011V34.0137L48.3194 34.0006V32.6948H46.3742V31.2404L48.839 31.24V29.9371H44.5293Z" fill="#1A2F45"/>
<path d="M49.2988 30.0647V37.2209H50.9438V33.3841L52.4625 37.2209H54.1679V30.0647H52.4094V32.7725L51.4502 30.0647H49.2988Z" fill="#1A2F45"/>
<path d="M54.9207 29.9371V37.1046H59.2304V35.7323H56.7924V34.0137L58.7108 34.0006V32.6951H56.7656V31.24H59.2304V29.9371H54.9207Z" fill="#1A2F45"/>
<path d="M59.5184 34.9109C59.5184 34.9109 59.4983 35.8301 59.5434 35.9199C59.9897 37.8748 63.4802 37.6484 64.1296 36.1367C64.2147 35.8368 64.3128 35.4157 64.1996 34.97C63.7069 33.2256 61.4618 32.7178 61.3921 31.9885C61.3838 31.7884 61.3716 31.7238 61.3921 31.6589C61.5171 31.3043 62.2713 31.2842 62.3861 31.6589C62.4312 31.8437 62.3861 32.3035 62.3861 32.3035H64.1296C64.1296 32.3035 64.1395 31.8859 64.1296 31.585C63.9697 29.9752 62.2278 29.9183 62.2278 29.9183C62.2278 29.9183 61.6619 29.9116 61.402 29.9183C59.8631 30.0052 59.6335 31.1828 59.5434 31.4504C59.5133 31.624 59.5236 32.0525 59.5434 32.1564C59.8433 33.6722 62.1012 34.4917 62.3212 35.1938C62.3813 35.371 62.3513 35.5906 62.3212 35.6706C62.1214 36.0651 61.3818 35.9503 61.2421 35.6706C61.1922 35.5606 61.2421 34.9163 61.2421 34.9163L59.5184 34.9109Z" fill="#1A2F45"/>
<path d="M66.5041 30.0548H64.6657V37.2289H66.5041V30.0548Z" fill="#1A2F45"/>
<path d="M70.7157 30.0544H68.4239L66.8719 37.2532H68.6505L68.8603 35.9493H70.1792L70.419 37.2532H72.2673L70.7157 30.0544ZM69.1202 34.6304L69.525 32.5723L69.9797 34.6304H69.1202Z" fill="#1A2F45"/>
<path d="M48.7057 51.024H46.9341V52.4094H48.7057V51.024Z" fill="#1A2F45"/>
<path d="M51.2904 45.2554H49.4519V52.4295H51.2904V45.2554Z" fill="#1A2F45"/>
<path d="M56.7123 50.7573C56.7123 50.3177 56.7123 47.3202 56.7123 46.6008C56.7123 45.8814 55.7132 45.202 54.393 45.1886C53.5946 45.1614 52.1162 45.242 52.1162 45.242V52.396C52.1162 52.396 53.6151 52.396 54.5941 52.396C55.5731 52.396 56.8124 51.8566 56.7123 50.7573ZM54.894 50.7375C54.894 50.8175 54.7242 50.9924 54.5343 50.9975C54.3444 51.0026 53.8948 50.9975 53.8948 50.9975V46.581C53.8948 46.581 54.4793 46.581 54.5743 46.581C54.6692 46.581 54.8991 46.731 54.894 46.8208C54.8889 46.9107 54.894 50.6576 54.894 50.7375Z" fill="#1A2F45"/>
<path d="M7.8335 39.5402H0.519643V67.681H7.8335V39.5402Z" fill="#1A2F45"/>
<path d="M71.9795 39.5402H64.6657V67.681H71.9795V39.5402Z" fill="#1A2F45"/>
<path d="M25.7917 49.8285C25.7917 51.2094 25.0356 52.3294 24.1032 52.3294H11.8134C10.8808 52.3294 10.1249 51.2094 10.1249 49.8285V42.2585C10.1249 40.877 10.8811 39.7576 11.8134 39.7576H24.1032C25.0359 39.7576 25.7917 40.877 25.7917 42.2585V49.8285Z" fill="#1A2F45"/>
<path d="M25.7917 65.1798C25.7917 66.5607 25.0356 67.6807 24.1032 67.6807H11.8134C10.8808 67.6807 10.1249 66.5607 10.1249 65.1798V57.6098C10.1249 56.2283 10.8811 55.1089 11.8134 55.1089H24.1032C25.0359 55.1089 25.7917 56.2283 25.7917 57.6098V65.1798Z" fill="#1A2F45"/>
<path d="M44.2271 49.8285C44.2271 51.2094 43.471 52.3294 42.5387 52.3294H30.2488C29.3162 52.3294 28.5603 51.2094 28.5603 49.8285V42.2585C28.5603 40.877 29.3165 39.7576 30.2488 39.7576H42.5387C43.471 39.7576 44.2271 40.877 44.2271 42.2585V49.8285Z" fill="#1A2F45"/>
<path d="M44.2271 65.1798C44.2271 66.5607 43.471 67.6807 42.5387 67.6807H30.2488C29.3162 67.6807 28.5603 66.5607 28.5603 65.1798V57.6098C28.5603 56.2283 29.3165 55.1089 30.2488 55.1089H42.5387C43.471 55.1089 44.2271 56.2283 44.2271 57.6098V65.1798Z" fill="#1A2F45"/>
<path d="M62.5609 65.1798C62.5609 66.5607 61.805 67.6807 60.8723 67.6807H48.5825C47.6499 67.6807 46.894 66.5607 46.894 65.1798V57.6098C46.894 56.2283 47.6499 55.1089 48.5825 55.1089H60.8723C61.805 55.1089 62.5609 56.2283 62.5609 57.6098V65.1798Z" fill="#1A2F45"/>
</svg>
